<svg xmlns="http://www.w3.org/2000/svg" version="1.1" xmlns:xlink="http://www.w3.org/1999/xlink" width="512" height="512" x="0" y="0" viewBox="0 0 135.467 135.467" style="enable-background:new 0 0 512 512" xml:space="preserve" class=""><g><g stroke-linecap="round" stroke-linejoin="round" paint-order="stroke fill markers"><path fill="#bc8769" d="M41.207 71s-7.87-5.682-9.518-10.494c-1.647-4.813.304-9.677.105-11.843-.2-2.167-3.181 3.962-3.181 3.962l-1.543 4.131s-2.97-2.84-3.882-5.873c-.912-3.032-.632-9.303-1.356-11.849-.725-2.545-3.81-6.827-5.788-8.426-1.979-1.599-4.833-3.342-4.672-2.258.161 1.085 2.186 1.983 2.723 3.353.537 1.37 2.515 3.314 3.006 5.73.49 2.415.32 4.232.344 6.043.024 1.812-3.667-.627-5.186-1.128-1.519-.502-2.881-1.146-2.74-.302.143.844-.156 1.175 1.945 2.69 2.102 1.515 3.18 1.503 5.663 3.843 2.484 2.34 6.067 9.231 7.13 10.894 1.062 1.663 1.75 1.664 3.806 3.536s5.158 2.758 2.658 3.47c-2.5.71-5.637 1.603-3.988 1.871 1.649.268 2.493.126 4.355.628 1.863.502 2.589 1.672 5.158 3.103 2.569 1.43 3.685 2.243 4.62 2.42.934.176.341-3.5.341-3.5z" opacity="1" data-original="#feac7c" class=""></path><path fill="#ffffff" d="M104.495 97.396c0 18.93-18.73 31.523-37.66 31.523-18.928 0-38.504-10.901-38.504-29.83 0-32.918 18.73-42.385 37.659-42.385 18.928 0 38.505 9.287 38.505 40.692z" opacity="1" data-original="#7738c7" class=""></path><path fill="#101572" d="M48.13 60.084c-2.755 1.25-5.343 2.878-7.683 4.943 3.707 5.21 10.707 9.376 16.086 10.085 6.071.8 13.543 1.468 17.946 0 4.403-1.468 8.607-.267 10.942 1.668 2.335 1.935 6.405-1.334 7.138-3.069.488-1.153-.025-5.405-.523-8.673a31.858 31.858 0 0 0-6.682-4.35c-4.585.28-10.78 1.153-15.002 1.856-7.36 1.227-14.153 2.831-17.738.378a71.184 71.184 0 0 0-4.483-2.838z" opacity="1" data-original="#171d8f" class=""></path><path fill="#ffc517" d="M45.145 48.953c-1.701.284-4.064 3.497-3.686 5.955.378 2.458-2.836 2.836.378 7.845 3.214 5.01 20.55 13.993 31.61 10.969 11.058-3.025 18.027-9.632 18.595-12.468 1.04-5.2-2.52-2.584-.747-9.596.99-3.915-2.859-4.028-2.859-4.028z" opacity="1" data-original="#ffc517" class=""></path><path fill="#ffac17" d="M87.172 48.56c-1.233.047-2.568 3.521-2.218 7.538.4 4.591-.334 4.137-.334 7.406 0 1.873-.086 3.82-.16 5.209 3.966-2.522 6.496-5.226 7.231-6.984-1.378-3.309-2.749-11.904-4.002-12.97a.745.745 0 0 0-.517-.198zm-10.458 8.197c-.65-.042-1.134.275-1.7.676-1.135.8-2.87 2.401-3.003 2.735-.134.333 5.27 2.802 5.804 5.404.534 2.602-3.536 3.87-6.271 4.27-2.736.4-8.873-.534-9.74.133-.868.667 8.472 1.134 11.34 1.001s5.538-2.335 6.672-1.068c.25.28.427.644.587 1.046a39.024 39.024 0 0 0 3.461-1.87c-1.396-3.662-2.337-9.083-4.448-10.851-1.234-1.034-2.051-1.434-2.702-1.476z" opacity="1" data-original="#ffac17" class=""></path><path fill="#ffc517" d="M76.81 59.823s4.773 1.749 5.435 6.522c.662 4.774 3.828 9.736 5.671 10.587s1.89-.804 3.97-.19c2.08.615 2.883-3.071 4.065-3.071 1.181 0-.615-3.309-2.174-5.057-1.56-1.749-2.789-3.781-4.112-8.46s-4.395-6.758-7.325-6.758c-2.93 0-5.53 6.427-5.53 6.427z" opacity="1" data-original="#ffc517" class=""></path><path fill="#ffffff" d="M91.934 37.894c0 12.685-12.552 24.292-25.238 24.292-12.685 0-25.804-10.472-25.804-23.158 0-12.685 12.552-25.237 25.237-25.237 12.685 0 25.805 11.418 25.805 24.103z" opacity="1" data-original="#7738c7" class=""></path><path fill="#bc8769" d="M94.677 79.533c-.075.463.12 4.138 1.726 4.98 1.605.841 2.416.076 4.513-.481 2.097-.557 3.445-2.028 5.225-4.537 1.78-2.51 4.158-5.767 5.861-6.176s5.631.44 6.944.81c1.312.372 1.095-.244.872-.491-.224-.248-6.551-3.23-6.56-3.495-.01-.265 5.291-4.948 6.476-6.393 1.185-1.444 3.772-3.717 4.09-5.672.317-1.954 1.4-5.369 1.2-8.041-.2-2.673.388-3.686.872-6.67.485-2.984-.812-1.822-1.26-.363-.449 1.458-1.475 3.879-1.701 5.268-.226 1.389-1.121 2.352-1.825 2.132-.703-.22-3.152-1.726-3.902-2.957-.75-1.23-1.247-1.1-1.303-.106-.056.994 1.316 3.276 1.403 3.713.088.436 1.858 1.569 1.73 3.66-.13 2.09-2.556 7.927-3.333 8.487-.778.56-6.731 5.032-7.037 5.616-.306.584-1.47 2.876-2.632 3.85-1.161.972-3.686 3.836-5.655 4.255-1.969.42-4.22.951-4.801 1.28-.582.327-.657.79-.903 1.331z" opacity="1" data-original="#feac7c" class=""></path><path fill="#ffc517" d="M71.88 47.305c-.237.612.152 1.404.763 1.64.611.237 1.438-.024 1.674-.635.237-.611-.135-1.45-.746-1.686s-1.456.07-1.692.681z" opacity="1" data-original="#ffc517" class=""></path><path fill="#101572" d="M73.015 47.295c-.067.173.043.396.215.463.173.066.406-.007.472-.18a.394.394 0 0 0-.21-.475c-.172-.066-.41.02-.477.192zM72.545 48.034c-.066.172.043.396.216.462.172.067.405-.006.472-.179a.394.394 0 0 0-.21-.475c-.173-.067-.411.02-.478.192z" opacity="1" data-original="#171d8f" class=""></path><path fill="#ffc517" d="M70.902 49.93c.325.842-.21 1.933-1.051 2.258-.841.325-1.98-.033-2.305-.874-.325-.841.186-1.995 1.027-2.32.841-.325 2.004.096 2.329.937z" opacity="1" data-original="#ffc517" class=""></path><path fill="#101572" d="M69.339 49.917c.091.237-.06.545-.297.636-.237.092-.558-.009-.65-.246-.091-.237.053-.563.29-.654.237-.092.565.027.657.264zM69.985 50.933c.092.238-.06.545-.296.637-.238.092-.559-.01-.65-.247-.092-.237.052-.562.29-.654.236-.091.564.027.656.264z" opacity="1" data-original="#171d8f" class=""></path><path fill="#ffc517" d="M62.155 51.092c-.41 1.063.266 2.442 1.328 2.853 1.063.41 2.501-.042 2.912-1.105.41-1.063-.235-2.521-1.298-2.932-1.062-.41-2.531.122-2.942 1.184z" opacity="1" data-original="#ffc517" class=""></path><path fill="#101572" d="M64.13 51.075c-.116.3.075.688.375.804.3.116.705-.012.82-.311.116-.3-.066-.711-.365-.827-.3-.116-.714.034-.83.334zM63.314 52.36c-.116.3.074.688.374.804.3.115.705-.012.821-.312.116-.3-.066-.71-.366-.827-.3-.115-.714.035-.83.334z" opacity="1" data-original="#171d8f" class=""></path><path fill="#ffc517" d="M60.383 50.691c.41 1.063-.265 2.442-1.328 2.853-1.063.41-2.501-.042-2.912-1.105-.41-1.063.235-2.521 1.298-2.932 1.063-.41 2.531.122 2.942 1.184z" opacity="1" data-original="#ffc517" class=""></path><path fill="#101572" d="M58.408 50.674c.116.3-.075.688-.374.804-.3.116-.706-.012-.821-.312-.116-.3.066-.71.365-.826.3-.116.714.034.83.334zM59.225 51.958c.115.3-.075.689-.375.805-.3.115-.705-.012-.821-.312-.116-.3.066-.71.366-.827.3-.115.714.035.83.334z" opacity="1" data-original="#171d8f" class=""></path><path fill="#ffc517" d="M51.57 48.66c-.325.842.21 1.933 1.05 2.258.842.325 1.98-.033 2.305-.874.325-.841-.186-1.995-1.027-2.32-.841-.325-2.003.096-2.328.937z" opacity="1" data-original="#ffc517" class=""></path><path fill="#101572" d="M53.133 48.647c-.092.237.059.545.296.637.237.091.558-.01.65-.247.091-.237-.053-.563-.29-.654-.237-.092-.565.027-.656.264zM52.486 49.664c-.091.237.06.545.297.636.237.092.558-.01.65-.246.091-.238-.053-.563-.29-.655-.237-.091-.565.027-.657.265z" opacity="1" data-original="#171d8f" class=""></path><path fill="#ffc517" d="M51.327 45.902c.236.611-.152 1.404-.763 1.64-.612.236-1.439-.024-1.675-.635-.236-.612.135-1.45.746-1.686.612-.236 1.456.07 1.692.68z" opacity="1" data-original="#ffc517" class=""></path><path fill="#101572" d="M50.192 45.892c.066.172-.043.396-.216.462-.172.067-.405-.007-.472-.179a.394.394 0 0 1 .21-.475c.173-.067.411.02.478.192zM50.661 46.63c.067.173-.043.396-.215.463-.173.066-.406-.007-.472-.18a.394.394 0 0 1 .21-.475c.172-.066.41.02.477.192z" opacity="1" data-original="#171d8f" class=""></path><path fill="#000000" d="M51.88 29.037c-2.399-.008-4.82.075-4.82.075s-4.337.633-4.671 1.7c-.334 1.068 1.401.902 2.669 1.569 1.267.667.767 4.937 2.301 5.204s8.34.667 9.54-1.135c1.202-1.8 2.43-3.736 4.338-3.736s3.135 1.935 4.336 3.736c1.2 1.802 8.006 1.401 9.54 1.135 1.535-.267 1.034-4.537 2.302-5.204 1.268-.667 3.002-.5 2.669-1.568-.334-1.068-4.67-1.701-4.67-1.701s-6.2-.214-8.584.077c-2.384.29-3.692 1.124-5.593 1.124s-3.21-.834-5.594-1.124c-.894-.11-2.325-.147-3.764-.152z" opacity="1" data-original="#ffffff" class=""></path><path fill="#bc8769" d="M59.64 35.615s2.941.067 3.209 2.874c.267 2.807-1.872 3.342-4.746 3.876-2.874.535-15.506-.4-18.113-2.205-2.606-1.805 12.432-4.545 19.65-4.545z" opacity="1" data-original="#feac7c" class=""></path><path fill="#ffc517" d="M53.732 77.563c.75 1.942-.484 4.46-2.426 5.211-1.942.75-4.569-.077-5.32-2.018-.75-1.942.43-4.606 2.371-5.356 1.942-.75 4.625.222 5.375 2.163z" opacity="1" data-original="#ffc517" class=""></path><path fill="#101572" d="M50.125 77.531c.211.548-.137 1.258-.685 1.47-.547.211-1.288-.022-1.5-.57-.211-.547.121-1.298.669-1.51.547-.211 1.304.063 1.516.61zM51.616 79.878c.212.547-.137 1.258-.684 1.47-.548.21-1.289-.022-1.5-.57-.212-.547.12-1.299.668-1.51.548-.212 1.305.062 1.516.61z" opacity="1" data-original="#171d8f" class=""></path><path fill="#ffc517" d="M44.372 95.221c-2.076.142-4.117-1.783-4.26-3.86-.142-2.076 1.426-4.34 3.502-4.483 2.077-.142 4.273 1.772 4.415 3.848.142 2.077-1.58 4.353-3.657 4.495z" opacity="1" data-original="#ffc517" class=""></path><path fill="#101572" d="M45.47 91.784c-.585.04-1.16-.502-1.2-1.088-.041-.586.401-1.224.987-1.265.585-.04 1.204.5 1.245 1.086.04.585-.446 1.227-1.032 1.267zM42.787 92.515c-.585.04-1.16-.503-1.2-1.089-.04-.585.401-1.224.987-1.264.585-.04 1.204.5 1.245 1.085.04.586-.446 1.228-1.032 1.268z" opacity="1" data-original="#171d8f" class=""></path><path fill="#ffc517" d="M39.896 109.621c-1.563-1.374-1.634-4.178-.26-5.742 1.375-1.563 4.087-2.045 5.65-.67 1.564 1.374 1.75 4.28.376 5.844-1.374 1.563-4.203 1.943-5.766.568z" opacity="1" data-original="#ffc517" class=""></path><path fill="#101572" d="M43.11 107.981c-.441-.387-.461-1.178-.074-1.62.388-.44 1.153-.576 1.594-.188.44.387.493 1.207.106 1.648-.388.44-1.186.548-1.626.16zM40.702 106.59c-.441-.387-.461-1.178-.073-1.619.387-.44 1.152-.577 1.593-.189.44.388.493 1.207.106 1.648-.388.441-1.185.548-1.626.16z" opacity="1" data-original="#171d8f" class=""></path><path fill="#ffac17" d="M42.12 53.49c.946 2.6 4.727 7.231 8.082 8.602 3.356 1.37 10.398 3.119 13.706 4.017 3.308.898-7.845.567-11.248-.662-3.403-1.229-6.948-5.199-8.838-6.475-1.89-1.276-2.363-1.37-2.552-2.41-.19-1.04-.945-3.12.85-3.072z" opacity="1" data-original="#ffac17" class=""></path><path fill="#101572" d="M91.14 32.999a13.826 13.826 0 0 1-1.45 3.218c-3.135 5.07-2.401 8.206-3.335 10.541-.934 2.335-4.07 6.338-9.64 10-5.571 3.66-10.042 2.943-16.046.741-4.827-1.77-9.611-1.817-14.595-5.13 4.98 5.855 12.821 9.704 20.504 9.704 12.662 0 25.191-11.586 25.191-24.248 0-1.637-.22-3.253-.629-4.826zM103.985 90.54c-5.01 11.84-18.438 24.404-26.17 26.87-9.207 2.935-18.68 4.136-25.085 2.402-6.405-1.735-14.01-4.403-18.947-7.206a5.937 5.937 0 0 0-1.902-.656c6.504 10.767 20.846 16.734 34.836 16.734 18.895 0 37.59-12.57 37.59-31.465 0-2.35-.111-4.572-.322-6.679z" opacity="1" data-original="#171d8f" class=""></path><g stroke-width="1.557"><path fill="#000000" d="M86.404 26.173s2.363.757 3.12-1.417c.755-2.174 1.512-18.149-11.06-18.149s-23.158-.661-27.884 5.86c-4.726 6.523-5.01 9.17-5.01 9.17s25.521 5.482 40.834 4.536z" opacity="1" data-original="#ff4b3d" class=""></path><path fill="#000000" d="M61.68 11.052c-5.147 2.005-4.312 8.656.5 10.16 4.813 1.503 8.556-11.764-.5-10.16z" opacity="1" data-original="#ffffff" class=""></path><path fill="#101572" d="M44.058 24.945s-7.089-5.2-9.263-8.224 18.715.378 26.466 3.497c7.751 3.12 16.92 4.821 20.606 5.483 3.686.661 4.537.472 4.537.472s-28.924 2.741-42.346-1.228z" opacity="1" data-original="#171d8f" class=""></path><path fill="#ffc517" d="M71.638 18.605c3.676 1.07 14.336-1.47 15.172.033.835 1.504 1.07 4.612-.902 5.147-1.972.534-12.566-1.638-14.203-2.774-1.638-1.136-1.738-2.94-.067-2.406zM78.088 16.466c1.002.234 6.85.568 7.352-.2.501-.769.601-2.473-.568-3.008-1.17-.535-5.414 1.27-6.216 1.504s-1.604 1.704-.568 1.704z" opacity="1" data-original="#ffc517" class=""></path><path fill="#000000" d="M17.443 40.565c.028 1.027-.01 1.971.001 2.912.01.747-.615.766-1.456.501 1.043.691 1.978 1.282 3.074 2.678 1.962 2.5 1.235.552.993-1.394-.212-1.714-1.003-2.995-2.612-4.697zm7.9 14.224c.679 2.25 1.565 4.439 2.087 4.426.932-.021-.36-2.459-.36-2.459s-.818-.786-1.727-1.967zm3.987 9.204c1.782 1.224 3.406 1.913 1.391 2.486-.273.077-.552.16-.833.242 1.976.374 4.665.944 3.846-.126-.748-.978-2.486-1.953-4.404-2.602z" opacity="1" data-original="#ff4b3d" class=""></path></g><path fill="#000000" d="M122.256 49.469c-.381.635-.911.984-1.363.843-.19-.059-.51-.217-.885-.432.301 1.146.513 2.362.61 3.373-.078 1.495 1.658 1.309 1.896-1.058-.015-.526-.134-1.652-.258-2.726zm-7.342 18.674c-1.445.585-2.921 1.317-4.242 1.966-1.834.9-2.468 1.534-1.434 1.467.997-.064 2.798-1.148 4.301-1.226-.278-.162-.483-.292-.485-.335-.003-.1.845-.914 1.86-1.872z" opacity="1" data-original="#ff4b3d" class=""></path></g></g></svg>